<svg id="レイヤー_1" xmlns="http://www.w3.org/2000/svg" width="100" height="100"><style></style><path d="M35.6 86C68 86 85.8 59.1 85.8 35.8v-2.3c3.4-2.5 6.4-5.6 8.8-9.2-3.2 1.4-6.6 2.3-10.2 2.8 3.6-2.2 6.4-5.6 7.8-9.8-3.4 2-7.2 3.5-11.2 4.3-3.2-3.4-7.8-5.6-12.9-5.6-9.7 0-17.7 7.9-17.7 17.7 0 1.4.2 2.7.4 4-14.6-.7-27.6-7.8-36.3-18.4-1.5 2.6-2.4 5.6-2.4 8.9 0 6.1 3.1 11.5 7.8 14.7-2.9-.1-5.6-.9-8-2.2v.2c0 8.5 6.1 15.7 14.1 17.3-1.5.4-3 .6-4.6.6-1.1 0-2.2-.1-3.3-.3 2.2 7 8.8 12.1 16.5 12.3-6.1 4.7-13.7 7.6-21.9 7.6-1.4 0-2.8-.1-4.2-.2C16.3 83 25.6 86 35.6 86"/></svg>
